<svg xmlns="http://www.w3.org/2000/svg" xmlns:xlink="http://www.w3.org/1999/xlink" viewBox="0 0 501.72 215.41"><defs><style>.cls-1,.cls-24{font-size:12px;font-family:MyriadPro-Regular, Myriad Pro;}.cls-1,.cls-23{fill:#1d1d1b;}.cls-2{letter-spacing:0.01em;}.cls-3{letter-spacing:0em;}.cls-4{letter-spacing:0em;}.cls-5{letter-spacing:0em;}.cls-6{letter-spacing:0em;}.cls-7{letter-spacing:-0.01em;}.cls-8{letter-spacing:0em;}.cls-9{letter-spacing:-0.05em;}.cls-10{letter-spacing:-0.01em;}.cls-11{letter-spacing:0em;}.cls-12{letter-spacing:-0.01em;}.cls-13{letter-spacing:-0.01em;}.cls-14{letter-spacing:-0.01em;}.cls-15{letter-spacing:-0.01em;}.cls-16{letter-spacing:0.01em;}.cls-17{letter-spacing:0em;}.cls-18{letter-spacing:-0.02em;}.cls-19{letter-spacing:0em;}.cls-20{letter-spacing:0.02em;}.cls-21{letter-spacing:0em;}.cls-22{fill:none;stroke:#1d1d1b;stroke-miterlimit:10;}.cls-24{fill:#fff;}</style></defs><g id="Capa_2" data-name="Capa 2"><g id="Capa_1-2" data-name="Capa 1"><text class="cls-1" transform="translate(0 88.49)"><tspan class="cls-2">S</tspan><tspan class="cls-3" x="5.99" y="0">ecunda</tspan><tspan class="cls-4" x="43.2" y="0">r</tspan><tspan x="47.17" y="0">ia </tspan><tspan class="cls-5" x="58.31" y="0">S</tspan><tspan class="cls-6" x="64.26" y="0">a</tspan><tspan class="cls-7" x="70.04" y="0">g</tspan><tspan class="cls-8" x="76.68" y="0">r</tspan><tspan class="cls-6" x="80.54" y="0">ada </tspan><tspan class="cls-9" x="101.42" y="0">F</tspan><tspan x="106.73" y="0">amilia</tspan></text><text class="cls-1" transform="translate(131.04 132.92)"><tspan class="cls-10">C</tspan><tspan x="6.82" y="0">urso de desa</tspan><tspan class="cls-11" x="69.88" y="0">r</tspan><tspan class="cls-12" x="73.85" y="0">r</tspan><tspan x="77.65" y="0">ollo </tspan><tspan class="cls-12" x="99.03" y="0">w</tspan><tspan x="107.75" y="0">eb </tspan><tspan class="cls-13" x="29.34" y="14.4">C</tspan><tspan x="36.17" y="14.4">oder House</tspan></text><text class="cls-1" transform="translate(256.68 77.41)"><tspan class="cls-10">C</tspan><tspan x="6.82" y="0">urso de back end </tspan><tspan class="cls-14" x="6.73" y="14.4">c</tspan><tspan x="12.03" y="14.4">odo a </tspan><tspan class="cls-14" x="42.85" y="14.4">c</tspan><tspan x="48.15" y="14.4">odo 4.0 </tspan></text><text class="cls-1" transform="translate(382.3 129.37)"><tspan class="cls-15">A</tspan><tspan class="cls-16" x="7.2" y="0">c</tspan><tspan x="12.73" y="0">tualme</tspan><tspan class="cls-17" x="47.95" y="0">n</tspan><tspan class="cls-14" x="54.56" y="0">t</tspan><tspan x="58.46" y="0">e cursando </tspan><tspan x="-1.76" y="14.4">en la escuela Da</tspan><tspan class="cls-18" x="78.31" y="14.4">V</tspan><tspan x="84.81" y="14.4">inci de</tspan><tspan class="cls-19" x="15.97" y="28.8">A</tspan><tspan class="cls-20" x="23.27" y="28.8">r</tspan><tspan class="cls-14" x="27.49" y="28.8">t</tspan><tspan x="31.39" y="28.8">e </tspan><tspan class="cls-21" x="39.94" y="28.8">M</tspan><tspan class="cls-3" x="49.63" y="28.8">ultimedial</tspan></text><line class="cls-22" x1="6.29" y1="107.69" x2="501.72" y2="107.69"/><image width="1244" height="938" transform="translate(26.24 11.23) scale(0.07)" xlink:href="../../../../Descargas/vecteezy_graduation-hat_1209014.png"/><image width="512" height="512" transform="translate(164.67 155.78) scale(0.11 0.1)" xlink:href="../../../../Descargas/pngegg.png"/><image width="4096" height="4096" transform="translate(261.08) scale(0.02)" xlink:href="../../../../Descargas/pngwing.com.png"/><image width="512" height="512" transform="translate(414.47 163.71) scale(0.1)" xlink:href="../../../../Descargas/pngwing.com%20(1).png"/><rect class="cls-23" x="52.03" y="100.49" width="32.57" height="14.4" rx="7.2"/><text class="cls-24" transform="translate(56.17 112.06)">2021</text><rect class="cls-23" x="171.39" y="100.49" width="32.57" height="14.4" rx="7.2"/><text class="cls-24" transform="translate(175.53 111.63)">2021</text><rect class="cls-23" x="287.75" y="100.49" width="32.57" height="14.4" rx="7.2"/><text class="cls-24" transform="translate(291.89 112.06)">2022</text><rect class="cls-23" x="424.03" y="100.06" width="32.57" height="14.4" rx="7.2"/><text class="cls-24" transform="translate(428.17 111.63)">2023</text></g></g></svg>